<?xml version="1.0" encoding="iso-8859-1"?>
<!-- Generator: Adobe Illustrator 19.0.0, SVG Export Plug-In . SVG Version: 6.00 Build 0)  -->
<svg xmlns="http://www.w3.org/2000/svg" xmlns:xlink="http://www.w3.org/1999/xlink" version="1.1" id="Capa_1" x="0px" y="0px" viewBox="0 0 512.002 512.002" style="enable-background:new 0 0 512.002 512.002;" xml:space="preserve" width="512px" height="512px">
<g>
	<g>
		<g>
			<path d="M221.486,388.137c-11.904,5.727-28.121,11.131-37.77,4.336c-9.125-6.428-11.602-22.17-11.881-33.648     c9.951-0.248,21.277-3.406,33.914-9.486c4.977-2.395,7.068-8.371,4.674-13.348c-2.396-4.977-8.369-7.068-13.348-4.674     c-11.906,5.728-28.121,11.131-37.77,4.336c-12.334-8.689-12.523-34.41-11.555-43.592c0.588-5.484-3.377-10.41-8.861-11.008     c-5.473-0.6-10.426,3.367-11.024,8.859c-0.498,4.563-4.16,45.068,19.871,62.055c1.309,0.926,2.678,1.732,4.078,2.471     c-0.297,13.684,1.635,41.133,20.332,54.35c6.49,4.588,14.119,6.881,22.834,6.881c10.252,0,22.006-3.172,35.178-9.51     c4.977-2.395,7.068-8.371,4.674-13.348C232.437,387.834,226.465,385.74,221.486,388.137z" fill="#61dafb"/>
			<path d="M373.113,281.053c-5.49,0.598-9.457,5.533-8.859,11.023c0.928,8.529,0.801,34.838-11.535,43.561     c-9.648,6.818-25.877,1.414-37.793-4.32c-4.977-2.397-10.953-0.305-13.348,4.674c-2.397,4.977-0.303,10.953,4.674,13.348     c12.631,6.078,23.949,9.234,33.896,9.486c-0.311,11.365-2.785,27.232-11.84,33.633c-9.648,6.816-25.875,1.414-37.791-4.32     c-4.978-2.396-10.953-0.303-13.348,4.674c-2.397,4.977-0.303,10.953,4.674,13.348c13.172,6.34,24.924,9.51,35.176,9.51     c8.715,0,16.346-2.293,22.834-6.881c18.699-13.217,20.631-40.666,20.334-54.352c1.4-0.738,2.768-1.543,4.076-2.469     c24.031-16.988,20.369-57.492,19.873-62.055C383.539,284.422,378.588,280.465,373.113,281.053z" fill="#61dafb"/>
			<path d="M256.004,164.231c-5.521,0-10,4.477-10,10v0.234c0,5.523,4.478,10,10,10c5.523,0,10-4.477,10-10v-0.234     C266.004,168.708,261.527,164.231,256.004,164.231z" fill="#61dafb"/>
			<path d="M256.004,423.035c-5.521,0-10,4.479-10,10v0.236c0,5.521,4.479,10,10,10c5.523,0,10-4.479,10-10v-0.236     C266.004,427.514,261.527,423.035,256.004,423.035z" fill="#61dafb"/>
			<path d="M53.492,176.322c0.01-0.002,0.019-0.004,0.029-0.006c0.006-0.002,0.009-0.003,0.017-0.006     C53.519,176.315,53.511,176.316,53.492,176.322z" fill="#61dafb"/>
			<path d="M465.99,185.754c-0.004-0.117-0.008-0.234-0.014-0.352c-0.006-0.107-0.012-0.215-0.022-0.32     c-0.01-0.113-0.025-0.223-0.039-0.334c-0.016-0.115-0.031-0.232-0.049-0.348c-0.016-0.096-0.029-0.189-0.049-0.285     c-0.022-0.117-0.049-0.234-0.076-0.352c-0.025-0.113-0.055-0.227-0.084-0.338c-0.022-0.082-0.041-0.162-0.067-0.242     c-0.035-0.125-0.076-0.248-0.117-0.371c-0.037-0.109-0.076-0.217-0.117-0.322c-0.025-0.07-0.051-0.143-0.08-0.213     c-0.051-0.127-0.105-0.252-0.16-0.375c-0.047-0.102-0.094-0.199-0.143-0.299c-0.033-0.066-0.064-0.135-0.1-0.201     c-0.063-0.123-0.129-0.242-0.197-0.361c-0.053-0.092-0.107-0.182-0.162-0.271c-0.043-0.07-0.084-0.139-0.129-0.207     c-0.072-0.113-0.148-0.221-0.227-0.33c-0.057-0.082-0.117-0.164-0.178-0.246c-0.055-0.072-0.111-0.146-0.168-0.217     c-0.078-0.098-0.158-0.193-0.24-0.287c-0.065-0.076-0.131-0.15-0.197-0.225c-0.068-0.074-0.139-0.15-0.209-0.223     c-0.08-0.084-0.164-0.164-0.248-0.244c-0.072-0.068-0.145-0.139-0.219-0.205c-0.08-0.072-0.16-0.145-0.244-0.215     c-0.084-0.07-0.17-0.139-0.256-0.207c-0.08-0.064-0.162-0.129-0.246-0.189c-0.088-0.066-0.174-0.129-0.264-0.191     c-0.088-0.061-0.178-0.119-0.268-0.178c-0.094-0.06-0.19-0.119-0.285-0.178c-0.086-0.053-0.172-0.104-0.26-0.152     c-0.096-0.055-0.193-0.104-0.291-0.154c-0.109-0.057-0.219-0.109-0.33-0.162c-0.08-0.039-0.16-0.076-0.24-0.113     c-0.105-0.045-0.213-0.088-0.32-0.131c-0.123-0.049-0.248-0.094-0.375-0.139c-0.072-0.025-0.143-0.053-0.217-0.078     c-0.113-0.037-0.228-0.068-0.344-0.102c-0.135-0.039-0.27-0.072-0.408-0.105c-0.057-0.016-0.113-0.035-0.172-0.049     c-0.086-0.02-9.434-3.305-19.344-20.377c-11.158-19.221-24.461-58.445-24.461-136.164c0-0.06-0.008-0.119-0.008-0.178     c-0.006-0.246-0.016-0.492-0.037-0.738c-0.012-0.113-0.027-0.227-0.041-0.34c-0.027-0.203-0.055-0.404-0.094-0.605     c-0.027-0.145-0.06-0.285-0.094-0.426c-0.039-0.168-0.08-0.334-0.127-0.5c-0.045-0.156-0.098-0.309-0.15-0.463     c-0.051-0.15-0.103-0.299-0.162-0.447c-0.061-0.15-0.125-0.299-0.193-0.445c-0.068-0.15-0.139-0.299-0.215-0.445     c-0.066-0.131-0.139-0.26-0.213-0.389c-0.09-0.158-0.185-0.314-0.283-0.467c-0.07-0.107-0.143-0.211-0.215-0.314     c-0.117-0.166-0.238-0.33-0.365-0.488c-0.068-0.086-0.139-0.168-0.209-0.25c-0.141-0.164-0.285-0.324-0.436-0.48     c-0.072-0.074-0.147-0.145-0.221-0.217c-0.156-0.15-0.315-0.295-0.479-0.436c-0.09-0.076-0.182-0.146-0.273-0.219     c-0.154-0.123-0.313-0.242-0.477-0.356c-0.121-0.086-0.248-0.166-0.373-0.246c-0.143-0.088-0.283-0.178-0.43-0.26     c-0.166-0.094-0.336-0.178-0.506-0.262c-0.09-0.043-0.172-0.094-0.264-0.135c-0.076-0.035-0.152-0.066-0.228-0.102     c-0.008-0.004-0.016-0.008-0.023-0.01C388.721,1.678,368.111,0,336.992,0c-5.523,0-10,4.478-10,10     c0,47.496-31.848,86.135-70.992,86.135c-39.145,0-70.992-38.639-70.992-86.135c0-5.522-4.477-10-10-10     c-31.119,0-51.729,1.678-71.266,10.484c-0.01,0.002-0.018,0.006-0.025,0.01c-0.076,0.035-0.152,0.066-0.229,0.102     c-0.09,0.041-0.174,0.092-0.262,0.135c-0.172,0.084-0.342,0.17-0.508,0.262c-0.145,0.082-0.285,0.17-0.424,0.258     c-0.129,0.082-0.258,0.162-0.381,0.25c-0.162,0.111-0.316,0.229-0.469,0.35c-0.094,0.074-0.189,0.148-0.281,0.227     c-0.162,0.137-0.316,0.279-0.469,0.426c-0.078,0.074-0.156,0.15-0.23,0.227c-0.148,0.152-0.289,0.309-0.426,0.469     c-0.076,0.088-0.148,0.174-0.221,0.264c-0.123,0.154-0.24,0.313-0.355,0.475c-0.076,0.107-0.15,0.217-0.223,0.328     c-0.098,0.148-0.188,0.301-0.277,0.455c-0.076,0.131-0.148,0.266-0.219,0.4c-0.074,0.143-0.143,0.287-0.209,0.434     c-0.068,0.15-0.137,0.303-0.197,0.457c-0.057,0.145-0.109,0.289-0.16,0.436c-0.053,0.156-0.105,0.314-0.152,0.473     c-0.047,0.162-0.088,0.326-0.125,0.492c-0.035,0.143-0.068,0.287-0.096,0.432c-0.037,0.199-0.066,0.4-0.092,0.601     c-0.014,0.115-0.031,0.229-0.041,0.344c-0.023,0.244-0.033,0.49-0.037,0.736c-0.002,0.059-0.01,0.117-0.01,0.178     c0,139.444-42.331,155.992-44.086,156.605c0.174-0.048,0.28-0.068,0.28-0.068l0.002,0.006c-0.049,0.01-0.096,0.025-0.145,0.035     c-0.051,0.013-0.103,0.023-0.154,0.033c-0.013,0.005-0.03,0.01-0.036,0.012c-0.086,0.023-0.17,0.051-0.256,0.074     c-0.166,0.049-0.33,0.102-0.492,0.158c-0.15,0.053-0.299,0.105-0.445,0.164c-0.152,0.061-0.303,0.127-0.451,0.195     c-0.148,0.068-0.295,0.137-0.441,0.211c-0.139,0.074-0.275,0.15-0.41,0.23c-0.145,0.084-0.287,0.168-0.428,0.258     c-0.129,0.086-0.256,0.174-0.381,0.264c-0.135,0.098-0.268,0.195-0.398,0.299c-0.121,0.098-0.238,0.197-0.355,0.301     c-0.123,0.107-0.246,0.215-0.363,0.328c-0.115,0.111-0.225,0.227-0.334,0.342c-0.107,0.115-0.217,0.232-0.318,0.352     c-0.108,0.125-0.209,0.254-0.311,0.383c-0.094,0.123-0.188,0.246-0.277,0.371c-0.096,0.137-0.186,0.277-0.275,0.42     c-0.082,0.129-0.162,0.258-0.238,0.391c-0.084,0.146-0.16,0.297-0.236,0.447c-0.07,0.139-0.139,0.275-0.201,0.418     c-0.068,0.152-0.129,0.307-0.189,0.463c-0.059,0.148-0.115,0.297-0.166,0.449c-0.051,0.154-0.096,0.311-0.141,0.469     c-0.045,0.16-0.088,0.32-0.125,0.484c-0.033,0.154-0.063,0.313-0.09,0.469c-0.031,0.172-0.059,0.344-0.08,0.518     c-0.02,0.158-0.033,0.316-0.045,0.477c-0.012,0.176-0.021,0.352-0.025,0.529C46.01,185.859,46,185.93,46,186.002     c0,85.637,24.803,140.09,46.687,188.133c14.141,31.047,26.356,57.859,28.658,87.396c0.406,5.205,4.748,9.223,9.971,9.223     c26.09,0,41.148,9.293,57.092,19.135c16.795,10.365,35.83,22.113,67.592,22.113c31.764,0,50.799-11.748,67.594-22.115     c15.943-9.84,31.002-19.133,57.092-19.133c5.221,0,9.563-4.018,9.969-9.223c2.305-29.537,14.518-56.35,28.66-87.396     c21.885-48.043,46.688-102.496,46.688-188.133C466.002,185.918,465.992,185.838,465.99,185.754z M401.113,365.844     c-13.012,28.566-25.367,55.693-29.438,85.238c-26.475,1.969-43.443,12.44-58.586,21.785c-13.787,8.51-26.92,16.605-47.09,18.641     l0.002-29.506c0-5.521-4.477-10-9.998-10c-0.002,0-0.002,0-0.002,0c-5.521,0-10,4.477-10,10L246,491.508     c-20.168-2.035-33.299-10.131-47.086-18.639c-15.145-9.348-32.113-19.818-58.59-21.787     c-4.068-29.545-16.426-56.672-29.436-85.238c-16.424-36.057-34.559-75.871-41.725-130.275c3.734,3.912,8.057,7.73,13.088,11.303     c20.252,14.375,46.891,21.566,79.67,21.566c27.186,0,58.605-4.963,94.078-14.863c35.479,9.9,66.893,14.863,94.08,14.863     c32.773,0,59.42-7.193,79.67-21.568c5.033-3.572,9.355-7.391,13.09-11.303C435.674,289.971,417.539,329.787,401.113,365.844z      M418.174,230.561c-30.762,21.838-83.279,23.543-152.174,5.023l0.002-32.387c0-5.523-4.477-10-9.998-10c-0.002,0-0.002,0-0.002,0     c-5.521,0-10,4.477-10,9.998L246,235.584c-68.605,18.441-120.998,16.826-151.805-4.764     c-18.512-12.973-24.924-29.959-27.111-39.066c6.297-3.91,15.023-11.457,23.377-25.846     c17.404-29.979,26.521-76.877,27.129-139.457c12.961-4.642,27.74-6.086,47.824-6.385c4.359,53.82,43.322,96.068,90.586,96.068     c47.264,0,86.227-42.248,90.586-96.068c20.084,0.299,34.865,1.742,47.826,6.385c0.607,62.58,9.725,109.479,27.129,139.455     c8.352,14.387,17.076,21.936,23.373,25.846C442.742,200.764,436.398,217.623,418.174,230.561z" fill="#61dafb"/>
		</g>
	</g>
</g>
<g>
</g>
<g>
</g>
<g>
</g>
<g>
</g>
<g>
</g>
<g>
</g>
<g>
</g>
<g>
</g>
<g>
</g>
<g>
</g>
<g>
</g>
<g>
</g>
<g>
</g>
<g>
</g>
<g>
</g>
</svg>
