<?xml version="1.0" encoding="iso-8859-1"?>
<!-- Generator: Adobe Illustrator 19.0.0, SVG Export Plug-In . SVG Version: 6.00 Build 0)  -->
<svg xmlns="http://www.w3.org/2000/svg" xmlns:xlink="http://www.w3.org/1999/xlink" version="1.1" id="Layer_1" x="0px" y="0px" viewBox="0 0 512 512" style="enable-background:new 0 0 512 512;" xml:space="preserve" width="512px" height="512px">
<g transform="translate(0 -1)">
	<g>
		<g>
			<path d="M137.829,385.185c0.136,0.035,0.279,0.055,0.411,0.099C138.057,385.238,137.927,385.207,137.829,385.185z" fill="#61dafb"/>
			<path d="M512,349.444c0-0.791-0.009-1.574-0.69-1.684c-0.091-0.215-0.198-0.419-0.304-0.624     c-1.863-8.251-7.722-14.9-15.219-20.732c-5.12-4.267-26.453-10.24-29.867-10.24c-9.387-0.853-20.48-2.56-32.427-5.12     c-33.28-5.973-66.56-15.36-98.133-28.16c-22.198-9.141-42.059-19.561-59.341-31.34c-0.566-0.717-1.256-1.378-2.099-1.94     c-29.013-20.48-50.347-44.373-63.147-73.387c-0.392-0.653-0.849-1.237-1.348-1.767c-8.077-19.071-12.306-40.057-12.306-63.086     c0-13.653-11.947-24.747-25.6-24.747c-1.707,0-2.56,0-4.267,0.853l-56.32,31.573l-20.48-13.653     c-0.677-0.484-1.378-0.844-2.086-1.117L64,88.324c-0.853-0.853-2.56-1.707-4.267-1.707c-14.507,0-25.6,11.093-25.6,25.6     c-0.853,57.173-3.413,93.867-8.533,115.2c-1.707,7.68-3.413,11.947-4.267,13.653l-2.56,2.56     c-15.36,23.893-20.48,51.2-17.92,79.36c0.853,10.24,2.56,19.627,5.12,28.16c0.033,0.1,0.065,0.198,0.097,0.298     C2.351,352.374,0,355.439,0,359.684v42.667c0,5.12,3.413,8.533,8.533,8.533H128c2.56,0,4.267-0.853,5.973-2.56l5.12-5.12     c3.413,0.853,7.68,1.707,11.093,2.56c11.947,3.413,25.6,5.973,40.96,8.533c60.587,11.093,122.027,16.213,179.2,11.093     c52.907-5.12,99.84-18.773,137.387-41.813c2.56-1.707,4.267-4.267,4.267-6.827v-25.6c0-0.309-0.033-0.606-0.063-0.905     C511.996,350.005,512,349.796,512,349.444z M486.4,339.204c3.413,2.56,5.12,5.12,6.827,6.827c-0.427,0.427-0.8,0.747-1.147,1     c-0.962,0.481-1.992,0.996-3.12,1.56c-8.533,4.267-19.627,7.68-32.427,11.093c-17.577,4.967-36.621,8.985-57.154,11.898     c3.398-10.032,26.331-27.378,51.274-40.893c4.976,0.734,9.787,1.303,14.414,1.689C468.48,332.377,483.84,337.497,486.4,339.204z      M160.618,360.848c3.539-4.3,6.326-9.174,8.342-14.818c2.484-7.453,45.955-41.426,99.994-79.302     c17.198,11.369,36.63,21.426,58.072,30.209c-9.33,8.965-18.054,19.762-25.8,32.026c-7.68,11.947-11.947,23.893-14.507,37.547     l-1.444,9.63C247.263,374.315,205.749,369.391,160.618,360.848z M93.867,128.43l11.947,8.533c2.56,1.707,5.973,1.707,8.533,0     l32.427-17.92l21.333,108.373c1.03,6.182-0.984,11.67-4.589,15.524c-5.408,5.067-13.756,6.749-21.011,2.396l-25.6-14.507     c-0.996-0.498-2.065-0.845-3.143-1.01l-11.364-6.67c-5.12-3.413-8.533-9.387-8.533-15.36V128.43z M113.493,249.604l19.627,11.093     c19.2,11.52,42.24,1.44,50.04-16.56c1.625-3.75,2.589-7.844,2.718-12.158c0.078-2.588-0.145-5.256-0.705-7.976l-4.267-23.04     c5.965-3.409,11.93-5.967,17.896-9.373c11.544,22.589,28.201,42.502,49.357,59.849c2.01,1.681,4.045,3.349,6.134,4.99     c-56.32,39.253-96.427,71.68-101.547,83.627c-2.508,6.688-6.665,11.737-12.449,16.754c-3.514-0.733-7.034-1.471-10.591-2.247     c-12.8-2.56-25.6-4.267-38.4-4.267H71.832l4.114-23.04c0-0.853,0.853-2.56,0.853-5.12c0.853-4.267,2.56-9.387,4.267-14.507     c5.12-15.36,12.8-30.72,22.187-44.373C106.667,258.99,110.08,253.87,113.493,249.604z M302.082,376.737l0.852-6.813     c1.707-11.947,5.973-21.333,11.947-31.573c8.533-12.8,17.92-23.893,28.16-33.28c26.453,9.387,53.76,17.067,80.213,21.333     c-19.627,12.8-35.84,27.307-40.107,39.253c-0.837,3.348-2.496,5.875-4.169,8.387C355.218,376.446,329.608,377.42,302.082,376.737     z M173.227,103.684c3.413,0.853,6.827,3.413,6.827,6.827c0,23.588,3.979,45.246,11.583,65.04     c-5.062,2.539-9.823,4.947-14.346,7.291l-14.099-73.631L173.227,103.684z M31.573,254.724c4.267-3.413,7.68-11.093,11.093-23.893     c5.12-22.187,8.533-60.587,8.533-118.613c0-4.267,2.56-7.68,5.973-8.533L76.8,116.768v91.022c0,12.8,6.827,23.893,17.067,29.867     l5.187,3.045c-3.322,3.83-6.53,7.928-9.454,12.315c-11.093,15.36-18.773,32.427-24.747,48.64     c-3.413,10.24-5.12,17.92-5.973,23.04l-4.595,25.6H23.04c0-0.853-0.853-2.56-0.853-4.267c-1.707-7.68-3.413-16.213-4.267-24.747     C15.36,296.537,19.627,274.35,31.573,254.724z M368.64,408.324c-55.467,5.12-116.053,0.853-174.933-10.24     c-14.507-2.56-28.16-5.973-40.107-8.533c-6.461-1.615-17.5-4.757-15.771-4.366c-2.507-0.643-5.694,0.231-8.122,2.659l-5.12,5.973     H17.067v-25.6H61.44h29.867c1.493,0,2.987,0.013,4.478,0.042c2.983,0.057,5.96,0.173,8.917,0.363     c1.478,0.095,2.952,0.208,4.418,0.342c5.867,0.533,11.627,1.387,17.173,2.667c1.226,0.409,2.455,0.621,3.961,0.826     c59.215,12.487,112.852,19.268,161.1,21.258c0.162,0.035,0.32,0.076,0.485,0.103c1.403,0.036,2.796,0.065,4.19,0.094     c31.541,1.107,60.73,0.135,87.652-2.627c0.105-0.01,0.213-0.018,0.318-0.028c0.003-0.002,0.007-0.003,0.01-0.005     c28.399-2.931,54.271-7.859,77.643-14.502c7.147-1.906,13.743-4.082,19.826-6.372c4.86-1.673,9.322-3.36,13.454-5.196v6.448     C459.947,392.11,417.28,404.057,368.64,408.324z" fill="#61dafb"/>
		</g>
	</g>
</g>
<g>
</g>
<g>
</g>
<g>
</g>
<g>
</g>
<g>
</g>
<g>
</g>
<g>
</g>
<g>
</g>
<g>
</g>
<g>
</g>
<g>
</g>
<g>
</g>
<g>
</g>
<g>
</g>
<g>
</g>
</svg>
