<?xml version="1.0" encoding="iso-8859-1"?>
<!-- Generator: Adobe Illustrator 19.0.0, SVG Export Plug-In . SVG Version: 6.00 Build 0)  -->
<svg xmlns="http://www.w3.org/2000/svg" xmlns:xlink="http://www.w3.org/1999/xlink" version="1.1" id="Capa_1" x="0px" y="0px" viewBox="0 0 489.1 489.1" style="enable-background:new 0 0 489.1 489.1;" xml:space="preserve" width="512px" height="512px">
<g>
	<path d="M481.2,64.5c0-11.4-9.4-20.8-20.8-20.8c-11.4,0-20.8,9.4-20.8,20.8c0,77-62.4,139.4-139.4,139.4c-2.3,0-23.3,2.1-34.3,7.3   v-22.1c42.4-9.6,74.9-47.6,74.9-93.4c0-53.1-42.7-95.7-95.7-95.7c-53.1,0-95.7,42.7-95.7,95.7c0,45.9,31.9,84,74.9,93.5v23.5   c-10.8-6.7-33.1-7.7-35.4-7.7c-77,0-139.4-62.4-139.4-139.4c0-11.4-9.4-20.8-20.8-20.8S7.9,54.2,7.9,65.6   c0,80.4,53.7,149.1,126.9,171.9c-7.9,11.5-12.5,25.4-12.5,40.3c0,33.3,22.9,62.4,55.1,69.7c5.7,1.4,20.1-1.3,23.9-15.6   c2.8-10.2-4.2-21.8-15.6-23.9c-14.6-3.1-23.9-15.6-23.9-30.2c0-17.7,13.5-31.2,31.2-31.2c15.2,0,27.3,10.8,30.4,24.4   c-0.2,1.9,0.8,83.7,0.8,83.7c-28.1,8.6-48.9,35.1-48.9,65.7c0,37.5,31.2,68.7,68.7,68.7s68.7-31.2,68.7-68.7   c0-29.8-19.8-55.7-46.8-65v-86.6c3.6-13.6,16.2-23.2,30.2-23.2c17.7,0,31.2,14.6,31.2,31.2c0,14.6-10.4,27-23.9,30.2   c-11.4,3.1-18.7,13.5-15.6,25c6.2,18.4,22.9,14.6,23.9,14.6c32.3-7.3,55.1-36.4,55.1-69.7c0-14.6-4.4-28.3-12-39.7   C427.2,214,480.3,146,481.2,64.5z M189.9,95.7c0-30.2,25-55.1,55.1-55.1c30.2,0,55.1,25,55.1,55.1s-25,55.1-55.1,55.1   S189.9,125.9,189.9,95.7z M244,448.4c-15.6,0-28.1-12.5-28.1-28.1s12.5-28.1,28.1-28.1s28.1,12.5,28.1,28.1S259.6,448.4,244,448.4z   " fill="#61dafb"/>
</g>
<g>
</g>
<g>
</g>
<g>
</g>
<g>
</g>
<g>
</g>
<g>
</g>
<g>
</g>
<g>
</g>
<g>
</g>
<g>
</g>
<g>
</g>
<g>
</g>
<g>
</g>
<g>
</g>
<g>
</g>
</svg>
