<?xml version="1.0" encoding="iso-8859-1"?>
<!-- Generator: Adobe Illustrator 19.0.0, SVG Export Plug-In . SVG Version: 6.00 Build 0)  -->
<svg xmlns="http://www.w3.org/2000/svg" xmlns:xlink="http://www.w3.org/1999/xlink" version="1.1" id="Capa_1" x="0px" y="0px" viewBox="0 0 398.848 398.848" style="enable-background:new 0 0 398.848 398.848;" xml:space="preserve" width="512px" height="512px">
<g>
	<g>
		<path d="M377.856,141.824c-11.776,0-20.992,9.216-20.992,20.992c0,5.12,2.048,10.24,5.12,13.824    c-25.6,6.656-103.424,18.944-155.648-54.784c8.192-3.072,13.824-10.752,13.824-19.456c0-11.776-9.216-20.992-20.992-20.992    s-20.992,9.216-20.992,20.992c0,9.216,5.632,16.896,13.824,19.456c-52.224,74.752-129.536,61.952-155.136,54.784    c3.072-3.584,5.12-8.704,5.12-13.824c0-11.776-9.216-20.992-20.992-20.992S0,151.04,0,162.816s9.216,20.992,20.992,20.992    c0.512,0,1.536,0,2.048,0l49.664,99.84v28.672c0,3.072,2.048,5.12,5.12,5.12h242.688c3.072,0,5.12-2.048,5.12-5.12v-28.16    l50.176-100.352c0.512,0,1.024,0,2.048,0c11.776,0,20.992-9.216,20.992-20.992C398.848,151.552,389.632,141.824,377.856,141.824z     M20.992,173.568c-5.632,0-10.752-4.608-10.752-10.752c0-5.632,4.608-10.752,10.752-10.752c5.632,0,10.752,4.608,10.752,10.752    S27.136,173.568,20.992,173.568z M188.928,102.4c0-5.632,4.608-10.752,10.752-10.752c5.632,0,10.752,4.608,10.752,10.752    c0,5.632-4.608,10.752-10.752,10.752C193.536,113.152,188.928,108.032,188.928,102.4z M315.904,307.2h-0.512H83.456v-18.944    h232.448V307.2z M317.44,278.016H81.92l-45.568-90.624c29.696,7.168,109.056,17.408,163.328-57.344    c54.272,74.752,133.632,64,163.328,56.832L317.44,278.016z M377.856,173.568c-5.632,0-10.752-4.608-10.752-10.752    c0-5.632,4.608-10.752,10.752-10.752c5.632,0,10.752,4.608,10.752,10.752S384,173.568,377.856,173.568z" fill="#61dafb"/>
	</g>
</g>
<g>
	<g>
		<path d="M227.328,213.504l-24.576-32.768c-1.024-1.536-2.56-2.048-4.096-2.048s-3.072,1.024-4.096,2.048l-24.576,32.768    c-1.536,2.048-1.536,4.096,0,6.144l24.576,33.28c1.024,1.536,2.56,2.048,4.096,2.048c1.536,0,3.072-1.024,4.096-2.048    l24.576-33.28C228.864,217.6,228.864,215.552,227.328,213.504z M198.656,241.152l-18.432-24.576L198.656,192l18.432,24.576    L198.656,241.152z" fill="#61dafb"/>
	</g>
</g>
<g>
	<g>
		<path d="M296.448,228.352l-14.848-20.48c-1.024-1.536-2.56-2.048-4.096-2.048s-3.072,1.024-4.096,2.048l-14.848,20.48    c-1.536,2.048-1.536,4.096,0,6.144l14.848,20.48c1.024,1.536,2.56,2.048,4.096,2.048s3.072-1.024,4.096-2.048l14.848-20.48    C297.984,232.448,297.984,230.4,296.448,228.352z M277.504,242.688l-8.704-11.776l8.704-11.776l8.704,11.776L277.504,242.688z" fill="#61dafb"/>
	</g>
</g>
<g>
	<g>
		<path d="M137.216,228.352l-14.848-20.48c-2.048-2.56-6.144-2.56-8.192,0l-14.848,20.48c-1.536,2.048-1.536,4.096,0,6.144    l14.848,20.48c1.024,1.536,2.56,2.048,4.096,2.048s3.072-1.024,4.096-2.048l14.848-20.48    C138.752,232.448,138.752,230.4,137.216,228.352z M118.272,242.688l-8.704-11.776l8.704-11.776l8.704,11.776L118.272,242.688z" fill="#61dafb"/>
	</g>
</g>
<g>
</g>
<g>
</g>
<g>
</g>
<g>
</g>
<g>
</g>
<g>
</g>
<g>
</g>
<g>
</g>
<g>
</g>
<g>
</g>
<g>
</g>
<g>
</g>
<g>
</g>
<g>
</g>
<g>
</g>
</svg>
