<?xml version="1.0" encoding="iso-8859-1"?>
<!-- Generator: Adobe Illustrator 17.1.0, SVG Export Plug-In . SVG Version: 6.00 Build 0)  -->
<!DOCTYPE svg PUBLIC "-//W3C//DTD SVG 1.1//EN" "http://www.w3.org/Graphics/SVG/1.1/DTD/svg11.dtd">
<svg xmlns="http://www.w3.org/2000/svg" xmlns:xlink="http://www.w3.org/1999/xlink" version="1.1" id="Capa_1" x="0px" y="0px" viewBox="0 0 232.264 232.264" style="enable-background:new 0 0 232.264 232.264;" xml:space="preserve" width="512px" height="512px">
<path d="M186.805,224.764c0,4.142-3.358,7.5-7.5,7.5h-128c-4.142,0-7.5-3.358-7.5-7.5v-16c0-4.142,3.358-7.5,7.5-7.5h128  c4.142,0,7.5,3.358,7.5,7.5V224.764z M220.191,22.933c-1.334-0.566-2.753-0.72-4.103-0.505c-1.501-0.238-3.074-0.018-4.503,0.689  l-33.432,16.5c-2.552,1.267-4.348,3.87-4.348,6.719v37.076c-5,2.988-10.265,4.564-15.914,4.565  c-14.877,0-27.361-10.173-30.488-24.739c-0.065-0.304-0.11-0.601-0.212-0.894l21.897-21.874c1.406-1.407,2.208-3.314,2.208-5.304  s-0.784-3.896-2.192-5.304L121.438,2.196c-2.928-2.928-7.675-2.928-10.605,0L83.166,29.864c-2.929,2.93-2.928,7.678,0,10.606  l21.847,21.848c-0.151,0.383-0.277,0.777-0.364,1.181c-3.118,14.58-15.993,24.764-31.048,24.765c-5.867,0-11.796-1.672-16.796-4.839  V46.336c0-2.833-1.414-5.424-3.943-6.698l-32.659-16.5c-1.768-0.891-3.715-1.027-5.52-0.475c-0.887,0.033-1.757,0.226-2.614,0.589  c-3.394,1.438-5.228,5.126-4.345,8.704l35.951,145.605c0.827,3.349,3.837,5.702,7.287,5.702h130.414  c3.452,0,6.459-2.356,7.283-5.709l35.883-145.928C225.421,28.054,223.577,24.372,220.191,22.933z" fill="#61dafb"/>
<g>
</g>
<g>
</g>
<g>
</g>
<g>
</g>
<g>
</g>
<g>
</g>
<g>
</g>
<g>
</g>
<g>
</g>
<g>
</g>
<g>
</g>
<g>
</g>
<g>
</g>
<g>
</g>
<g>
</g>
</svg>
