<?xml version="1.0" encoding="iso-8859-1"?>
<!-- Generator: Adobe Illustrator 19.0.0, SVG Export Plug-In . SVG Version: 6.00 Build 0)  -->
<svg version="1.1" id="Capa_1" xmlns="http://www.w3.org/2000/svg" xmlns:xlink="http://www.w3.org/1999/xlink" x="0px" y="0px"
	 viewBox="0 0 512.001 512.001" style="enable-background:new 0 0 512.001 512.001;" xml:space="preserve">
<path style="fill:#F0B400;" d="M417.696,196.543c0.027,1.23-0.001,2.473-0.087,3.728c-1.359,19.896-17.485,36.015-37.382,37.36
	c-23.512,1.59-43.08-17.012-43.08-40.184c0-6.721,1.649-13.054,4.563-18.623c3.098-5.923,1.997-13.164-2.805-17.813l-73.566-71.219
	c-5.206-5.04-13.471-5.04-18.677,0l-73.382,71.041c-4.814,4.66-6.161,11.966-3.039,17.895c3.331,6.326,5.029,13.644,4.526,21.4
	c-1.292,19.923-17.355,36.09-37.271,37.494c-23.566,1.662-43.2-16.964-43.2-40.175c0-0.385,0.005-0.77,0.016-1.153
	c0.189-6.702-4.203-12.676-10.617-14.632l-66.343-20.23c-9.748-2.973-19.124,5.573-17.065,15.555l36.944,179.108h437.54
	l36.944-179.107c2.059-9.981-7.317-18.527-17.065-15.555l-66.343,20.23C421.805,183.645,417.546,189.748,417.696,196.543z"/>
<path style="fill:#FFD23D;" d="M256.001,86.013c-3.368,0-6.736,1.26-9.339,3.78l-73.383,71.042
	c-4.814,4.66-6.161,11.966-3.039,17.894c3.331,6.326,5.029,13.644,4.526,21.399c-1.292,19.923-17.355,36.091-37.27,37.495
	c-23.566,1.662-43.2-16.964-43.2-40.175c0-0.385,0.005-0.77,0.016-1.153c0.189-6.702-4.203-12.676-10.617-14.632l-66.343-20.23
	c-9.748-2.973-19.124,5.573-17.065,15.555l36.944,179.107h218.77V86.013z"/>
<path style="fill:#D69920;" d="M482.229,330.38H29.773v57.146c0,21.243,17.221,38.463,38.463,38.463h375.529
	c21.243,0,38.463-17.22,38.463-38.463V330.38H482.229z"/>
<path style="fill:#F0B400;" d="M256.001,330.381H29.773v57.145c0,21.243,17.221,38.463,38.463,38.463h187.765V330.381z"/>
<g>
	<path style="fill:#F5F9FA;" d="M111.472,367.955H97.963c-5.65,0-10.23,4.58-10.23,10.23s4.58,10.23,10.23,10.23h13.509
		c5.65,0,10.23-4.58,10.23-10.23S117.122,367.955,111.472,367.955z"/>
	<path style="fill:#F5F9FA;" d="M212.327,367.955h-13.509c-5.65,0-10.23,4.58-10.23,10.23s4.58,10.23,10.23,10.23h13.509
		c5.65,0,10.23-4.58,10.23-10.23S217.977,367.955,212.327,367.955z"/>
</g>
<g>
	<path style="fill:#E0FFFD;" d="M313.183,367.955h-13.508c-5.65,0-10.23,4.58-10.23,10.23s4.58,10.23,10.23,10.23h13.508
		c5.65,0,10.23-4.58,10.23-10.23S318.832,367.955,313.183,367.955z"/>
	<path style="fill:#E0FFFD;" d="M414.038,367.955h-13.509c-5.65,0-10.23,4.58-10.23,10.23s4.58,10.23,10.23,10.23h13.509
		c5.65,0,10.23-4.58,10.23-10.23S419.688,367.955,414.038,367.955z"/>
</g>
<circle style="fill:#FFE280;" cx="43.817" cy="306.691" r="33.495"/>
<path style="fill:#FFFFCF;" d="M43.817,340.189c-18.499,0-33.495-14.996-33.495-33.495s14.996-33.495,33.495-33.495V340.189z"/>
<circle style="fill:#FFE280;" cx="256.001" cy="306.691" r="33.495"/>
<path style="fill:#FFFFCF;" d="M256.001,340.189c-18.499,0-33.495-14.996-33.495-33.495s14.996-33.495,33.495-33.495V340.189z"/>
<circle style="fill:#FFE280;" cx="468.181" cy="306.691" r="33.495"/>
<path style="fill:#FFFFCF;" d="M468.185,340.189c-18.499,0-33.495-14.996-33.495-33.495s14.996-33.495,33.495-33.495V340.189z"/>
<g>
</g>
<g>
</g>
<g>
</g>
<g>
</g>
<g>
</g>
<g>
</g>
<g>
</g>
<g>
</g>
<g>
</g>
<g>
</g>
<g>
</g>
<g>
</g>
<g>
</g>
<g>
</g>
<g>
</g>
</svg>
